<svg width="100" height="100" viewBox="0 0 100 100" fill="none" xmlns="http://www.w3.org/2000/svg">
  <circle cx="50" cy="50" r="40" fill="#609AFA"/>
  
  <circle cx="62" cy="42" r="12" stroke="white" stroke-width="4"/>
  <path d="M62 23V27M81 42H77M75.43 28.57L72.6 31.4" stroke="white" stroke-width="4" stroke-linecap="round"/>
  
  <path d="M30 64C30 57.37 35.37 52 42 52C42.4 52 42.8 52.02 43.2 52.06C45 46.3 50.4 42 56.8 42C64.64 42 71 48.36 71 56.2C71 56.6 70.98 57 70.95 57.4C74.4 58.8 77 62.1 77 66C77 71.52 72.52 76 67 76H42C35.37 76 30 70.63 30 64Z" fill="white"/>
</svg>

